<?xml version="1.0" encoding="utf-8"?>
<!-- Generator: Adobe Illustrator 14.0.0, SVG Export Plug-In . SVG Version: 6.00 Build 43363)  -->
<!DOCTYPE svg PUBLIC "-//W3C//DTD SVG 1.1//EN" "http://www.w3.org/Graphics/SVG/1.1/DTD/svg11.dtd">
<svg version="1.1"
	 id="svg1901" xmlns:dc="http://purl.org/dc/elements/1.1/" xmlns:cc="http://creativecommons.org/ns#" xmlns:rdf="http://www.w3.org/1999/02/22-rdf-syntax-ns#" xmlns:svg="http://www.w3.org/2000/svg" xmlns:sodipodi="http://sodipodi.sourceforge.net/DTD/sodipodi-0.dtd" xmlns:inkscape="http://www.inkscape.org/namespaces/inkscape" inkscape:version="0.47 " sodipodi:docname="Computer_keyboard_German.svg"
	 xmlns="http://www.w3.org/2000/svg" xmlns:xlink="http://www.w3.org/1999/xlink" x="0px" y="0px" width="54.167px" height="55px"
	 viewBox="1262.25 633.001 54.167 55" enable-background="new 1262.25 633.001 54.167 55" xml:space="preserve">
<sodipodi:namedview  id="namedview1769" showgrid="false" pagecolor="#ffffff" bordercolor="#666666" inkscape:cy="346.89278" guidetolerance="10" inkscape:cx="750" gridtolerance="10" inkscape:zoom="1.2586667" objecttolerance="10" borderopacity="1" inkscape:current-layer="layer2" inkscape:window-y="-4" inkscape:window-x="-4" inkscape:snap-grids="true" inkscape:window-height="964" inkscape:window-width="1680" inkscape:pageshadow="2" inkscape:pageopacity="0" inkscape:window-maximized="1">
	<inkscape:grid  type="xygrid" id="grid4583"></inkscape:grid>
</sodipodi:namedview>
<defs>
	
	
		<inkscape:perspective  id="perspective1773" inkscape:persp3d-origin="750 : 250 : 1" inkscape:vp_z="1500 : 375 : 1" inkscape:vp_y="0 : 1000 : 0" inkscape:vp_x="0 : 375 : 1" sodipodi:type="inkscape:persp3d">
		</inkscape:perspective>
</defs>
<g id="layer2" transform="translate(115.62417,74.248815)">
	<path id="rect5767" fill="#656565" d="M1152.714,560.164h41.955c2.633,0,4.77,1.796,4.77,4.012v44.021
		c0,2.216-2.137,4.012-4.77,4.012h-41.955c-2.633,0-4.77-1.796-4.77-4.012v-44.021
		C1147.944,561.959,1150.081,560.164,1152.714,560.164z"/>
	<rect id="rect5769" x="1188.136" y="564.028" fill="#D6D6D6" width="11.279" height="34.563"/>
	
		<linearGradient id="path5771_1_" gradientUnits="userSpaceOnUse" x1="-298.4279" y1="-398.3477" x2="-301.4583" y2="-385.7207" gradientTransform="matrix(0.2087 0 0 -0.208 1254.9041 481.1358)">
		<stop  offset="0" style="stop-color:#D6D6D6"/>
		<stop  offset="1" style="stop-color:#656565"/>
	</linearGradient>
	<path id="path5771" fill="url(#path5771_1_)" d="M1190.296,567.043l9.094-2.972c-0.361-2.857-2.33-3.846-5.068-3.938
		c-3.646,0.105-7.203,0.261-9.094,1.337L1190.296,567.043z"/>
	<rect id="rect5773" x="1157.038" y="599.222" fill="#929292" width="33.469" height="12.975"/>
	
		<linearGradient id="path5775_1_" gradientUnits="userSpaceOnUse" x1="1643.8143" y1="-583.5049" x2="1663.8613" y2="-599.1635" gradientTransform="matrix(-0.2087 0 0 -0.208 1537.7977 481.1358)">
		<stop  offset="0" style="stop-color:#D6D6D6"/>
		<stop  offset="1" style="stop-color:#939393"/>
	</linearGradient>
	<path id="path5775" fill="url(#path5775_1_)" d="M1188.597,596.175l10.805,1.156l0.039,10.505c-0.006,2.71-2.166,4.267-4.4,4.36
		l-4.811-0.053l-5.322-12.344L1188.597,596.175z"/>
	
		<linearGradient id="path5777_1_" gradientUnits="userSpaceOnUse" x1="-497.9552" y1="-583.9981" x2="-475.0519" y2="-599.6559" gradientTransform="matrix(0.2087 0 0 -0.208 1254.9041 481.1358)">
		<stop  offset="0" style="stop-color:#656565"/>
		<stop  offset="1" style="stop-color:#939393"/>
	</linearGradient>
	<path id="path5777" fill="url(#path5777_1_)" d="M1155.456,596.071l-7.484,1.261l-0.039,10.505c0.006,2.71,2.166,4.267,4.4,4.36
		l4.811-0.053l1.686-12.292L1155.456,596.071z"/>
	<path id="rect5779" fill="#F1F1F1" d="M1159.485,560.821h26.994c2.635,0,4.77,2.129,4.77,4.755v30.736S
		c0,2.626-2.135,4.754-4.77,4.754h-26.994c-2.635,0-4.771-2.128-4.771-4.754v-30.736
		C1154.714,562.95,1156.85,560.821,1159.485,560.821z"/>
	
		<linearGradient id="rect5781_1_" gradientUnits="userSpaceOnUse" x1="-556.3654" y1="-637.3506" x2="-479.8134" y2="-637.3506" gradientTransform="matrix(0.2087 0 0 -0.208 1281.6346 448.3741)">
		<stop  offset="0" style="stop-color:#D8D8D8"/>
		<stop  offset="1" style="stop-color:#B1B1B1"/>
	</linearGradient>
	<path id="rect5781" fill="url(#rect5781_1_)" d="M1159.485,560.821h25.939c2.635,0,4.771,2.129,4.771,4.755v30.736
		c0,2.626-2.137,4.754-4.771,4.754h-25.939c-2.635,0-4.771-2.128-4.771-4.754v-30.736
		C1154.714,562.95,1156.85,560.821,1159.485,560.821z"/>
	<path id="rect5791" fill="none" stroke="#000000" stroke-width="1.5" d="M1152.714,560.164h41.955c2.633,0,4.77,1.796,4.77,4.012
		v44.021c0,2.216-2.137,4.012-4.77,4.012h-41.955c-2.633,0-4.77-1.796-4.77-4.012v-44.021
		C1147.944,561.959,1150.081,560.164,1152.714,560.164z"/>
	<text transform="matrix(1.0034 0 0 1 1158.746 574.8686)" font-family="'DejaVuSansCondensed'" font-size="13.9762">4</text>
</g>
</svg>
